HIERARCHY
ROOT Hips
{
	OFFSET -0.001795 -0.223333 0.028219
	CHANNELS 6 Xposition Yposition Zposition Zrotation Yrotation Xrotation 
	JOINT LeftUpLeg
	{
		OFFSET 0.069520 -0.091406 -0.006815
		CHANNELS 3 Zrotation Yrotation Xrotation
		JOINT LeftLeg
		{
			OFFSET 0.034277 -0.375199 -0.004496
			CHANNELS 3 Zrotation Yrotation Xrotation
			JOINT LeftFoot
			{
				OFFSET -0.013596 -0.397961 -0.043693
				CHANNELS 3 Zrotation Yrotation Xrotation
				JOINT LeftToe
				{
					OFFSET 0.026358 -0.055791 0.119288
					CHANNELS 3 Zrotation Yrotation Xrotation
					End Site
					{
						OFFSET 0.000000 0.000000 0.000000
					}
				}
			}
		}
	}
	JOINT RightUpLeg
	{
		OFFSET -0.067670 -0.090522 -0.004320
		CHANNELS 3 Zrotation Yrotation Xrotation
		JOINT RightLeg
		{
			OFFSET -0.038290 -0.382569 -0.008850
			CHANNELS 3 Zrotation Yrotation Xrotation
			JOINT RightFoot
			{
				OFFSET 0.015774 -0.398415 -0.042312
				CHANNELS 3 Zrotation Yrotation Xrotation
				JOINT RightToe
				{
					OFFSET -0.025372 -0.048144 0.123348
					CHANNELS 3 Zrotation Yrotation Xrotation
					End Site
					{
						OFFSET 0.000000 0.000000 0.000000
					}
				}
			}
		}
	}
	JOINT Spine
	{
		OFFSET -0.002533 0.108963 -0.026696
		CHANNELS 3 Zrotation Yrotation Xrotation
		JOINT Spine1
		{
			OFFSET 0.005487 0.135180 0.001092
			CHANNELS 3 Zrotation Yrotation Xrotation
			JOINT Spine2
			{
				OFFSET 0.001457 0.052922 0.025425
				CHANNELS 3 Zrotation Yrotation Xrotation
				JOINT Neck
				{
					OFFSET -0.002778 0.213870 -0.042857
					CHANNELS 3 Zrotation Yrotation Xrotation
					JOINT Head
					{
						OFFSET 0.005152 0.064970 0.051349
						CHANNELS 3 Zrotation Yrotation Xrotation
						End Site
						{
							OFFSET 0.000000 0.000000 0.000000
						}
					}
				}
				JOINT LeftShoulder
				{
					OFFSET 0.078845 0.121749 -0.034090
					CHANNELS 3 Zrotation Yrotation Xrotation
					JOINT LeftArm
					{
						OFFSET 0.090977 0.030469 -0.008868
						CHANNELS 3 Zrotation Yrotation Xrotation
						JOINT LeftForeArm
						{
							OFFSET 0.259612 -0.012772 -0.027456
							CHANNELS 3 Zrotation Yrotation Xrotation
							JOINT LeftHand
							{
								OFFSET 0.249234 0.008986 -0.001171
								CHANNELS 3 Zrotation Yrotation Xrotation
								End Site
								{
									OFFSET 0.000000 0.000000 0.000000
								}
							}
						}
					}
				}
				JOINT RightShoulder
				{
					OFFSET -0.081759 0.118833 -0.038615
					CHANNELS 3 Zrotation Yrotation Xrotation
					JOINT RightArm
					{
						OFFSET -0.096012 0.032551 -0.009143
						CHANNELS 3 Zrotation Yrotation Xrotation
						JOINT RightForeArm
						{
							OFFSET -0.253742 -0.013329 -0.021401
							CHANNELS 3 Zrotation Yrotation Xrotation
							JOINT RightHand
							{
								OFFSET -0.255298 0.007772 -0.005559
								CHANNELS 3 Zrotation Yrotation Xrotation
								End Site
								{
									OFFSET 0.000000 0.000000 0.000000
								}
							}
						}
					}
				}
			}
		}
	}
}
MOTION
Frames: 15
Frame Time: 0.050000
0.000000 0.939565 0.000000 0.044224 8.050648 3.840828 3.113743 -0.212349 -1.681651 4.419068 0.045021 -6.821980 -3.105523 -0.555651 9.800706 0.000000 0.000000 0.000000 -3.578793 0.334340 -3.964907 -1.850143 0.585075 8.005112 -4.495377 -12.252371 8.600348 0.000000 0.000000 0.000000 5.585740 0.280445 -5.067840 -0.554695 0.471669 -4.902567 -3.822382 4.651123 8.921291 5.923785 -2.482268 -10.601571 0.000000 0.000000 0.000000 -7.834417 -6.233247 0.823068 -51.998983 -6.303166 -4.060477 -19.824273 -36.064445 6.821255 0.000000 0.000000 0.000000 11.025682 -1.734554 -0.387176 60.277569 0.922739 -5.203727 9.083678 27.861459 3.709265 0.000000 0.000000 0.000000 
-0.000759 0.939436 -0.000143 -0.264643 7.588964 4.196189 3.582352 -0.203088 -1.286852 4.235785 0.133140 -8.160027 -2.977578 -0.168174 10.244896 0.000000 0.000000 0.000000 -3.693969 0.389297 -4.720063 -1.094376 0.457891 8.382107 -4.286388 -11.849971 8.509199 0.000000 0.000000 0.000000 6.491333 0.338210 -5.651994 -0.837571 0.578489 -4.774539 -3.987069 5.175640 8.799495 5.905275 -2.303809 -11.299396 0.000000 0.000000 0.000000 -7.784096 -7.342048 1.231097 -50.767540 -8.383392 -3.025655 -21.796442 -38.939096 8.000407 0.000000 0.000000 0.000000 9.951473 -2.387087 -0.697910 61.468301 0.404712 -5.355420 9.603539 26.627277 3.633025 0.000000 0.000000 0.000000 
-0.001379 0.939667 -0.000664 0.009183 7.609483 3.918346 3.356960 -0.175465 -0.961544 4.159080 0.138038 -8.210933 -3.061408 -0.223113 10.412401 0.000000 0.000000 0.000000 -4.198409 0.372600 -4.760013 -0.662789 0.391881 9.001879 -4.284537 -11.837737 8.439132 0.000000 0.000000 0.000000 6.128115 0.304414 -5.248573 0.121112 0.273845 -7.031846 -4.926380 5.092763 10.630965 5.166649 -1.530133 -12.738772 0.000000 0.000000 0.000000 -6.372566 -7.869500 1.636964 -50.941452 -12.805145 -1.442704 -24.846983 -42.204697 9.857227 0.000000 0.000000 0.000000 10.191206 -1.523234 -0.216811 61.510026 0.402946 -5.588994 9.663923 26.556664 3.667773 0.000000 0.000000 0.000000 
-0.001717 0.939557 -0.001202 -0.045072 8.469913 3.997679 3.660255 -0.220307 -1.489535 3.841755 0.125164 -7.815369 -3.430796 -0.826152 10.279251 0.000000 0.000000 0.000000 -4.101598 0.363318 -4.657682 -0.470437 0.338624 8.855394 -4.644885 -12.521266 8.605022 0.000000 0.000000 0.000000 5.934246 0.388218 -6.451060 0.281934 0.163884 -5.742164 -4.694007 3.869467 9.707104 4.853120 -1.687261 -11.048471 0.000000 0.000000 0.000000 -5.908638 -8.746051 2.093652 -50.261132 -16.941387 0.379859 -26.330791 -46.925245 11.801720 0.000000 0.000000 0.000000 9.275290 -1.480394 -0.339123 61.365468 -0.316833 -5.827146 10.345171 26.388862 3.732690 0.000000 0.000000 0.000000 
-0.002052 0.939815 -0.001993 0.123997 8.812606 3.796962 3.517667 -0.215975 -1.484392 3.815424 0.114286 -7.608017 -3.631311 -1.093210 10.347651 0.000000 0.000000 0.000000 -4.468282 0.318234 -4.189131 -0.043326 0.241274 8.472468 -4.740856 -12.700084 8.676583 0.000000 0.000000 0.000000 5.318662 0.349579 -6.133031 1.193895 -0.177729 -6.286861 -5.327394 3.399257 9.461668 4.622024 -1.629187 -10.540343 0.000000 0.000000 0.000000 -4.200564 -10.508006 2.939580 -48.438117 -23.266977 2.808899 -27.482612 -52.440713 13.950372 0.000000 0.000000 0.000000 9.674020 -1.671640 -0.444014 60.611615 -0.814720 -6.045811 11.306105 27.190113 4.087925 0.000000 0.000000 0.000000 
-0.002236 0.940607 -0.003046 -0.128666 8.748032 3.699380 3.627100 -0.234026 -1.766231 4.106857 0.074516 -7.090528 -3.586786 -1.014253 10.360796 0.000000 0.000000 0.000000 -4.132175 0.337372 -4.335137 -0.158072 0.268971 8.671588 -4.684777 -12.609353 9.005298 0.000000 0.000000 0.000000 5.133152 0.342643 -6.073045 1.747736 -0.415578 -6.134094 -5.163847 1.898286 9.137451 4.105053 -1.540242 -9.737660 0.000000 0.000000 0.000000 -3.604196 -11.977113 3.640559 -46.162254 -29.850711 5.206811 -23.582998 -58.074527 13.947911 0.000000 0.000000 0.000000 9.514540 -0.679886 -0.167621 60.450636 -0.769515 -6.121314 10.728209 27.136103 3.846891 0.000000 0.000000 0.000000 
-0.002396 0.941287 -0.004384 -0.070305 8.473550 3.535659 3.374905 -0.252059 -2.239883 4.407798 -0.007665 -5.972458 -3.411838 -0.812522 10.225592 0.000000 0.000000 0.000000 -4.259157 0.342214 -4.473598 -0.120691 0.272169 8.994726 -4.542869 -12.353891 9.143681 0.000000 0.000000 0.000000 4.603501 0.305700 -5.650125 2.014713 -0.520100 -6.288653 -5.411037 0.676496 8.681275 3.432971 -1.229593 -9.385311 0.000000 0.000000 0.000000 -1.418912 -13.999927 4.522797 -43.114734 -37.344940 7.490922 -10.663746 -60.956222 7.509053 0.000000 0.000000 0.000000 10.377620 0.557989 0.240416 59.904223 -1.128176 -6.373818 10.197298 27.174003 3.634712 0.000000 0.000000 0.000000 
-0.002413 0.942261 -0.005763 -0.243857 8.149153 3.486088 3.375892 -0.273956 -2.641399 4.688811 -0.070868 -5.252930 -3.247911 -0.539203 10.274767 0.000000 0.000000 0.000000 -3.883932 0.385341 -4.935558 -0.534748 0.374003 9.571825 -4.399066 -12.113617 9.480404 0.000000 0.000000 0.000000 3.956054 0.264844 -5.192554 2.855145 -0.859366 -6.483046 -5.553910 -0.765519 8.332426 2.909239 -1.086676 -8.650821 0.000000 0.000000 0.000000 0.588000 -16.172554 5.319598 -37.441998 -45.647182 8.925482 5.483828 -58.688326 -1.450635 0.000000 0.000000 0.000000 10.675308 1.725121 0.568508 59.357946 -0.801907 -6.260002 9.624490 26.395633 3.288616 0.000000 0.000000 0.000000 
-0.002178 0.942999 -0.006819 -0.546113 7.685773 3.582910 3.364967 -0.297113 -3.054537 5.213743 -0.140127 -4.733224 -2.998695 -0.147124 10.302577 0.000000 0.000000 0.000000 -3.574230 0.417071 -5.191021 -0.655594 0.402309 9.467926 -4.163494 -11.704147 9.747710 0.000000 0.000000 0.000000 3.560689 0.237555 -4.851675 3.314089 -1.012903 -7.068064 -5.429134 -2.175767 8.208444 2.200630 -0.702149 -8.716248 0.000000 0.000000 0.000000 3.789338 -17.965209 5.788217 -30.144940 -54.428256 8.987821 15.848026 -50.069744 -5.700121 0.000000 0.000000 0.000000 10.731722 2.699542 0.783558 58.953175 -0.929254 -6.366170 9.700033 25.667728 3.105760 0.000000 0.000000 0.000000 
-0.001673 0.943403 -0.007270 -0.851935 6.987287 3.843670 3.579132 -0.319325 -3.408519 5.310610 -0.169665 -4.464059 -2.621480 0.412834 10.296694 0.000000 0.000000 0.000000 -3.241508 0.470078 -5.690748 -0.884908 0.458840 9.497872 -3.851055 -11.161088 9.887439 0.000000 0.000000 0.000000 3.141144 0.230072 -4.842157 3.985639 -1.281090 -7.285036 -5.074687 -3.764546 7.517425 1.136855 -0.145699 -8.181863 0.000000 0.000000 0.000000 7.299926 -20.043240 6.098117 -17.715632 -60.435079 4.846065 19.133713 -38.981058 -5.290408 0.000000 0.000000 0.000000 9.966237 3.612992 0.922733 58.903396 -1.015442 -6.414756 10.022894 24.951715 2.958397 0.000000 0.000000 0.000000 
-0.001048 0.943683 -0.007066 -1.203934 5.961577 4.020601 3.717197 -0.324036 -3.540198 5.597344 -0.213557 -4.217033 -2.071782 1.207052 10.241691 0.000000 0.000000 0.000000 -2.882527 0.517684 -6.068628 -1.153096 0.524512 9.462029 -3.389143 -10.349120 9.924973 0.000000 0.000000 0.000000 2.968353 0.221486 -4.699418 4.375129 -1.432667 -7.554778 -4.538827 -5.013146 6.907143 -0.130260 0.587191 -7.616056 0.000000 0.000000 0.000000 10.817155 -21.379136 5.988006 -4.366560 -64.354830 -1.453645 19.347782 -27.937722 -3.688216 0.000000 0.000000 0.000000 8.911611 3.633959 0.720569 59.000570 -1.357988 -6.624056 10.584190 24.594300 2.914891 0.000000 0.000000 0.000000 
-0.000416 0.943908 -0.006535 -1.413633 4.841427 4.020483 3.941604 -0.305714 -3.312782 5.433523 -0.215341 -4.146025 -1.505662 2.033082 10.219400 0.000000 0.000000 0.000000 -2.682020 0.546546 -6.277794 -1.429104 0.595657 9.530907 -2.888883 -9.461294 9.871517 0.000000 0.000000 0.000000 2.680347 0.214298 -4.565738 5.141806 -1.740418 -7.789534 -4.627259 -6.102499 6.789168 -0.831320 0.981069 -7.653378 0.000000 0.000000 0.000000 14.200872 -22.674239 5.712553 7.922121 -65.204478 -7.913354 17.366467 -18.271188 -2.038817 0.000000 0.000000 0.000000 8.174020 3.924854 0.688742 59.784567 -1.529688 -6.895195 9.993592 23.941758 2.623530 0.000000 0.000000 0.000000 
0.000088 0.944139 -0.005974 -1.602453 3.791840 4.337789 4.132009 -0.299572 -3.255733 5.307083 -0.192601 -4.401557 -0.997501 2.830145 10.357842 0.000000 0.000000 0.000000 -2.374997 0.599314 -6.738097 -1.898821 0.696471 9.463252 -2.435907 -8.673393 9.871447 0.000000 0.000000 0.000000 2.589168 0.216843 -4.598799 5.488946 -1.880770 -7.959824 -4.191479 -6.885810 6.711259 -1.391154 1.298592 -8.018911 0.000000 0.000000 0.000000 16.902869 -23.621404 5.362210 17.606709 -65.064382 -12.914063 14.240851 -11.789294 -0.983674 0.000000 0.000000 0.000000 6.998759 3.270491 0.368088 60.799258 -2.168781 -7.479539 10.333179 24.435762 2.666654 0.000000 0.000000 0.000000 
0.000486 0.944140 -0.005346 -1.671585 2.834990 4.193812 4.393278 -0.272504 -2.884301 4.826774 -0.172388 -4.330419 -0.520235 3.507095 10.300242 0.000000 0.000000 0.000000 -2.160629 0.625693 -6.936889 -2.387631 0.824649 9.890090 -2.040807 -7.962548 9.739091 0.000000 0.000000 0.000000 2.472789 0.227421 -4.718727 6.107866 -2.210469 -7.231635 -4.276509 -7.798476 6.416795 -1.810908 1.510090 -8.405087 0.000000 0.000000 0.000000 18.650451 -23.643458 4.936984 20.975778 -63.706377 -13.861221 10.487134 -7.514226 -0.380172 0.000000 0.000000 0.000000 5.808239 2.996649 0.259695 61.521689 -2.272295 -7.777967 10.404714 24.300829 2.573717 0.000000 0.000000 0.000000 
0.000806 0.944018 -0.004742 -1.654863 1.412924 4.192433 4.387415 -0.239222 -2.459764 4.597904 -0.157059 -4.445193 0.166531 4.531916 10.366073 0.000000 0.000000 0.000000 -2.161934 0.644139 -7.092536 -2.771620 0.911474 9.837231 -1.441445 -6.855149 9.476985 0.000000 0.000000 0.000000 2.720677 0.225961 -4.518879 6.185008 -2.256303 -7.297000 -4.178494 -8.087976 6.574345 -2.129545 1.660884 -8.559990 0.000000 0.000000 0.000000 19.420818 -23.519386 4.655469 21.158466 -62.520902 -13.186132 8.138604 -5.522644 -0.169087 0.000000 0.000000 0.000000 4.712719 2.432414 0.108424 62.755865 -2.850593 -8.479969 10.989076 24.878509 2.686610 0.000000 0.000000 0.000000 
